<svg width="128" height="128" viewBox="0 0 128 128" fill="none" xmlns="http://www.w3.org/2000/svg">
<path fill-rule="evenodd" clip-rule="evenodd" d="M89.7351 76.5626C92.2741 76.5626 94.6439 75.8489 96.649 74.6141C96.649 74.6669 96.649 74.6933 96.6495 74.7156C96.6737 75.7254 97.4991 76.5382 98.5242 76.5621C98.5469 76.5626 98.5737 76.5626 98.6272 76.5626H102.795V50.8365H96.649V52.7849C94.6439 51.5501 92.2741 50.8365 89.7351 50.8365C82.5225 50.8365 76.6755 56.5955 76.6755 63.6995C76.6755 70.8036 82.5225 76.5626 89.7351 76.5626ZM89.7351 70.5094C93.5535 70.5094 96.649 67.4605 96.649 63.6995C96.649 59.9386 93.5535 56.8897 89.7351 56.8897C85.9166 56.8897 82.8212 59.9386 82.8212 63.6995C82.8212 67.4605 85.9166 70.5094 89.7351 70.5094Z" fill="white"/>
<path d="M48.2412 50.8365L59.1696 76.823L55.7247 85.0144L56.4345 85.304C58.4219 86.1148 59.4156 86.5202 60.3349 86.449C61.1436 86.3863 61.9113 86.0731 62.5281 85.5542C63.2294 84.9643 63.641 83.9855 64.4642 82.028L77.5816 50.8365H70.098L62.9114 67.9254L55.7247 50.8365H48.2412Z" fill="white"/>
<path d="M6 50.8365L15.2475 72.8259C15.8153 74.1762 16.0993 74.8513 16.5649 75.3474C16.9763 75.7858 17.4873 76.1221 18.056 76.3288C18.6995 76.5626 19.4415 76.5626 20.9254 76.5626H24.3623L35.1812 50.8365H27.6976L20.5906 67.7362L13.4836 50.8365H6Z" fill="white"/>
<path d="M112.013 50.8365H105.868V74.671C105.868 75.7157 106.727 76.5626 107.788 76.5626H112.013V64.4388C112.013 62.8323 112.257 61.1799 113.25 59.9056C113.504 59.5803 113.779 59.271 114.075 58.9798C116.072 57.0124 118.138 56.739 120.848 56.739C121.234 56.739 121.618 56.762 122 56.8075V50.8802C121.617 50.8511 121.233 50.8365 120.848 50.8365C118.88 50.8365 116.932 51.2181 115.115 51.9596C114.013 52.4092 112.781 53.1064 112.013 54.0522V50.8365Z" fill="white"/>
<path d="M45.1791 44.4049C45.1791 46.2854 43.6314 47.8099 41.7221 47.8099C39.8129 47.8099 38.2652 46.2854 38.2652 44.4049C38.2652 42.5244 39.8129 41 41.7221 41C43.6314 41 45.1791 42.5244 45.1791 44.4049Z" fill="white"/>
<path d="M38.2547 50.8365H45.1686V76.5626H44.4004C42.2492 76.5626 41.1736 76.5626 40.3519 76.1503C39.6292 75.7875 39.0416 75.2088 38.6733 74.4969C38.2547 73.6876 38.2547 72.6282 38.2547 70.5094V50.8365Z" fill="white"/>
</svg>
